<svg version="1.2" xmlns="http://www.w3.org/2000/svg" viewBox="0 0 28 28" width="28" height="28">
	<title>envlope-svg</title>
	<defs>
		<clipPath clipPathUnits="userSpaceOnUse" id="cp1">
			<path d="m14 27.5c-7.47 0-13.5-6.03-13.5-13.5 0-7.47 6.03-13.5 13.5-13.5 7.47 0 13.5 6.03 13.5 13.5 0 7.47-6.03 13.5-13.5 13.5z"/>
		</clipPath>
	</defs>
	<style>
		.s0 { fill: #bf9444 } 
		.s1 { fill: none;stroke: #bf9444 } 
	</style>
	<path id="Layer" fill-rule="evenodd" class="s0" d="m20.7 10v8c0 0.7-0.6 1.3-1.4 1.3h-10.6c-0.8 0-1.4-0.6-1.4-1.3v-8c0-0.7 0.6-1.3 1.4-1.3h10.6c0.8 0 1.4 0.6 1.4 1.3zm-12 0v0.3l5.3 4.2 5.3-4.2v-0.3zm10.7 8v-6l-4.9 3.9q-0.2 0.1-0.4 0.1-0.3 0-0.4-0.1l-5-3.9v6z"/>
	<g clip-path="url(#cp1)">
		<path id="Layer" class="s1" d="m14 27.5c-7.5 0-13.5-6-13.5-13.5 0-7.5 6-13.5 13.5-13.5 7.5 0 13.5 6 13.5 13.5 0 7.5-6 13.5-13.5 13.5z"/>
		<rect width="28" height="28" id="Relleno de color sólido 1" style="fill: #e5a99e"/>
	</g>
</svg>