<svg version="1.2" xmlns="http://www.w3.org/2000/svg" viewBox="0 0 28 28" width="28" height="28">
	<title>location-svg</title>
	<defs>
		<clipPath clipPathUnits="userSpaceOnUse" id="cp1">
			<path d="m6 6h16v16h-16z"/>
		</clipPath>
		<clipPath clipPathUnits="userSpaceOnUse" id="cp2">
			<path d="m14 27.5c-7.47 0-13.5-6.03-13.5-13.5 0-7.47 6.03-13.5 13.5-13.5 7.47 0 13.5 6.03 13.5 13.5 0 7.47-6.03 13.5-13.5 13.5z"/>
		</clipPath>
	</defs>
	<style>
		.s0 { fill: #bf9444 } 
		.s1 { fill: none;stroke: #bf9444 } 
	</style>
	<g id="Clip-Path" clip-path="url(#cp1)">
		<g id="Layer">
			<path id="Layer" fill-rule="evenodd" class="s0" d="m8 12c0-1.6 0.6-3.1 1.8-4.2 1.1-1.2 2.6-1.8 4.2-1.8 1.6 0 3.1 0.6 4.2 1.8 1.2 1.1 1.8 2.6 1.8 4.2 0 4.3-6 10-6 10 0 0-6-5.7-6-10zm11 0c0-1.3-0.5-2.6-1.5-3.5-0.9-1-2.2-1.5-3.5-1.5-1.3 0-2.6 0.5-3.5 1.5-1 0.9-1.5 2.2-1.5 3.5 0 0.9 0.3 1.9 0.8 2.9 0.6 1.1 1.3 2.2 2 3.1q1 1.4 2.2 2.6 1.2-1.2 2.2-2.6c0.7-0.9 1.4-2 2-3.1 0.5-1 0.8-2 0.8-2.9z"/>
			<path id="Layer" fill-rule="evenodd" class="s0" d="m11.9 14.1c-0.6-0.5-0.9-1.3-0.9-2.1 0-0.8 0.3-1.6 0.9-2.1 0.5-0.6 1.3-0.9 2.1-0.9 0.8 0 1.6 0.3 2.1 0.9 0.6 0.5 0.9 1.3 0.9 2.1 0 0.8-0.3 1.6-0.9 2.1-0.5 0.6-1.3 0.9-2.1 0.9-0.8 0-1.6-0.3-2.1-0.9zm3.5-0.7c0.4-0.4 0.6-0.9 0.6-1.4 0-0.5-0.2-1-0.6-1.4-0.4-0.4-0.9-0.6-1.4-0.6-0.5 0-1 0.2-1.4 0.6-0.4 0.4-0.6 0.9-0.6 1.4 0 0.5 0.2 1 0.6 1.4 0.4 0.4 0.9 0.6 1.4 0.6 0.5 0 1-0.2 1.4-0.6z"/>
		</g>
	</g>
	<g clip-path="url(#cp2)">
		<path id="Layer" class="s1" d="m14 27.5c-7.5 0-13.5-6-13.5-13.5 0-7.5 6-13.5 13.5-13.5 7.5 0 13.5 6 13.5 13.5 0 7.5-6 13.5-13.5 13.5z"/>
		<rect width="28" height="28" id="Relleno de color sólido 1" style="fill: #e5a99e"/>
	</g>
</svg>