<svg version="1.2" xmlns="http://www.w3.org/2000/svg" viewBox="0 0 28 28" width="28" height="28">
	<title>phone-svg</title>
	<defs>
		<clipPath clipPathUnits="userSpaceOnUse" id="cp1">
			<path d="m10.2 17.8c-1.78-1.84-2.81-4.29-2.87-6.85q0-0.26 0.1-0.51 0.11-0.25 0.3-0.44l1.8-1.81q0.19-0.19 0.47-0.2 0.27 0.01 0.47 0.2l2.66 2.66q0.19 0.2 0.2 0.47-0.01 0.28-0.2 0.47l-1.06 1.07q0.31 1.12 1.06 2 0.88 0.76 2 1.06l1.07-1.06q0.2-0.19 0.47-0.19 0.27 0 0.47 0.19l2.67 2.67q0.19 0.19 0.19 0.47 0 0.27-0.19 0.47l-1.81 1.8q-0.19 0.19-0.44 0.3-0.25 0.1-0.51 0.1c-2.57-0.06-5.01-1.09-6.85-2.87zm-1.53-6.86c0.05 2.21 0.94 4.33 2.48 5.92 1.59 1.53 3.7 2.42 5.91 2.47l1.33-1.33-1.72-1.73-0.86 0.88q-0.12 0.12-0.28 0.17-0.17 0.05-0.33 0.01c-1.11-0.24-2.15-0.77-3-1.53-0.76-0.85-1.28-1.89-1.53-3q-0.03-0.17 0.02-0.33 0.05-0.16 0.18-0.28l0.86-0.86-1.73-1.72zm10.35 0.58q-0.34-0.87-1-1.54-0.67-0.66-1.54-1-0.87-0.35-1.81-0.32v-1.33q1.2-0.02 2.32 0.42 1.11 0.45 1.96 1.3 0.85 0.85 1.3 1.96 0.44 1.12 0.42 2.32h-1.33q0.03-0.94-0.32-1.81z"/>
		</clipPath>
	</defs>
	<style>
		.s0 { fill: #bf9444 } 
		.s1 { fill: none;stroke: #bf9444 } 
	</style>
	<g clip-path="url(#cp1)">
		<path id="Layer" fill-rule="evenodd" class="s0" d="m10.2 17.8c-1.8-1.8-2.8-4.3-2.9-6.8q0-0.3 0.1-0.6 0.1-0.2 0.3-0.4l1.8-1.8q0.2-0.2 0.5-0.2 0.3 0 0.5 0.2l2.6 2.7q0.2 0.1 0.2 0.4 0 0.3-0.2 0.5l-1 1.1q0.3 1.1 1 2 0.9 0.7 2 1l1.1-1q0.2-0.2 0.5-0.2 0.2 0 0.4 0.2l2.7 2.6q0.2 0.2 0.2 0.5 0 0.3-0.2 0.5l-1.8 1.8q-0.2 0.2-0.4 0.3-0.3 0.1-0.6 0.1c-2.5-0.1-5-1.1-6.8-2.9zm-1.5-6.9c0 2.3 0.9 4.4 2.4 6 1.6 1.5 3.7 2.4 6 2.4l1.3-1.3-1.7-1.7-0.9 0.9q-0.1 0.1-0.3 0.1-0.1 0.1-0.3 0c-1.1-0.2-2.1-0.7-3-1.5-0.8-0.9-1.3-1.9-1.5-3q-0.1-0.2 0-0.3 0-0.2 0.2-0.3l0.8-0.9-1.7-1.7zm10.4 0.6q-0.4-0.9-1.1-1.5-0.6-0.7-1.5-1.1-0.9-0.3-1.8-0.3v-1.3q1.2 0 2.3 0.4 1.1 0.5 2 1.3 0.8 0.9 1.3 2 0.4 1.1 0.4 2.3h-1.3q0-0.9-0.3-1.8z"/>
	</g>
	<path id="Layer" class="s0" d="m14.7 10c2.1 0 3.3 1.2 3.3 3.3h-1.3c0-1.4-0.6-2-2-2z"/>
	<path id="Layer" class="s1" d="m14 27.5c-7.5 0-13.5-6-13.5-13.5 0-7.5 6-13.5 13.5-13.5 7.5 0 13.5 6 13.5 13.5 0 7.5-6 13.5-13.5 13.5z"/>
</svg>