<svg version="1.2" xmlns="http://www.w3.org/2000/svg" viewBox="0 0 28 28" width="28" height="28">
	<title>phone-svg</title>
	<defs>
		<clipPath clipPathUnits="userSpaceOnUse" id="cp1">
			<path d="m14 27.5c-7.47 0-13.5-6.03-13.5-13.5 0-7.47 6.03-13.5 13.5-13.5 7.47 0 13.5 6.03 13.5 13.5 0 7.47-6.03 13.5-13.5 13.5z"/>
		</clipPath>
	</defs>
	<style>
		.s0 { fill: #bf9444 } 
		.s1 { fill: none;stroke: #bf9444 } 
	</style>
	<path id="Layer" fill-rule="evenodd" class="s0" d="m10.2 17.8c-1.8-1.8-2.8-4.3-2.9-6.8q0-0.3 0.1-0.6 0.1-0.2 0.3-0.4l1.8-1.8q0.2-0.2 0.5-0.2 0.3 0 0.5 0.2l2.6 2.7q0.2 0.1 0.2 0.4 0 0.3-0.2 0.5l-1 1.1q0.3 1.1 1 2 0.9 0.7 2 1l1.1-1q0.2-0.2 0.5-0.2 0.2 0 0.4 0.2l2.7 2.6q0.2 0.2 0.2 0.5 0 0.3-0.2 0.5l-1.8 1.8q-0.2 0.2-0.4 0.3-0.3 0.1-0.6 0.1c-2.5-0.1-5-1.1-6.8-2.9zm-1.5-6.9c0 2.3 0.9 4.4 2.4 6 1.6 1.5 3.7 2.4 6 2.4l1.3-1.3-1.7-1.7-0.9 0.9q-0.1 0.1-0.3 0.1-0.1 0.1-0.3 0c-1.1-0.2-2.1-0.7-3-1.5-0.8-0.9-1.3-1.9-1.5-3q-0.1-0.2 0-0.3 0-0.2 0.2-0.3l0.8-0.9-1.7-1.7zm10.4 0.6q-0.4-0.9-1.1-1.5-0.6-0.7-1.5-1.1-0.9-0.3-1.8-0.3v-1.3q1.2 0 2.3 0.4 1.1 0.5 2 1.3 0.8 0.9 1.3 2 0.4 1.1 0.4 2.3h-1.3q0-0.9-0.3-1.8z"/>
	<path id="Layer" class="s0" d="m14.7 10c2.1 0 3.3 1.2 3.3 3.3h-1.3c0-1.4-0.6-2-2-2z"/>
	<g clip-path="url(#cp1)">
		<path id="Layer" class="s1" d="m14 27.5c-7.5 0-13.5-6-13.5-13.5 0-7.5 6-13.5 13.5-13.5 7.5 0 13.5 6 13.5 13.5 0 7.5-6 13.5-13.5 13.5z"/>
		<rect width="28" height="28" id="Relleno de color sólido 1" style="fill: #e2a79d"/>
	</g>
</svg>